<svg width="87" height="25" viewBox="0 0 87 25" fill="none" xmlns="http://www.w3.org/2000/svg">
<path d="M30.784 6.65586L24.608 23.9999H18.72L15.456 14.5599L12.064 23.9999H6.176L0 6.65586H5.76L9.312 17.1519L12.992 6.65586H18.176L21.76 17.2479L25.44 6.65586H30.784Z" fill="#1A1A1F"/>
<path d="M49.901 15.3599C49.901 15.4025 49.869 15.9039 49.805 16.8639H37.197C37.453 17.7599 37.9437 18.4532 38.669 18.9439C39.4157 19.4132 40.3437 19.6479 41.453 19.6479C42.285 19.6479 42.9997 19.5305 43.597 19.2959C44.2157 19.0612 44.8343 18.6772 45.453 18.1439L48.653 21.4719C46.9677 23.3492 44.5037 24.2879 41.261 24.2879C39.2343 24.2879 37.453 23.9039 35.917 23.1359C34.381 22.3679 33.1863 21.3012 32.333 19.9359C31.501 18.5705 31.085 17.0239 31.085 15.2959C31.085 13.5892 31.4903 12.0639 32.301 10.7199C33.133 9.35453 34.2743 8.28786 35.725 7.51986C37.1757 6.75186 38.8077 6.36786 40.621 6.36786C42.349 6.36786 43.917 6.73053 45.325 7.45586C46.733 8.15986 47.8423 9.19453 48.653 10.5599C49.485 11.9039 49.901 13.5039 49.901 15.3599ZM40.653 10.6879C39.7143 10.6879 38.925 10.9545 38.285 11.4879C37.6663 12.0212 37.2717 12.7465 37.101 13.6639H44.205C44.0343 12.7465 43.629 12.0212 42.989 11.4879C42.3703 10.9545 41.5917 10.6879 40.653 10.6879Z" fill="#1A1A1F"/>
<path d="M58.4963 8.73586C59.1149 7.94653 59.9149 7.35986 60.8963 6.97586C61.8989 6.57053 63.0403 6.36786 64.3203 6.36786V11.8399C63.7656 11.7759 63.3069 11.7439 62.9443 11.7439C61.6429 11.7439 60.6189 12.0959 59.8723 12.7999C59.1469 13.5039 58.7843 14.5812 58.7843 16.0319V23.9999H52.7043V6.65586H58.4963V8.73586Z" fill="#1A1A1F"/>
<path d="M74.7012 17.9199L72.9092 19.7439V23.9999H66.8293V0.255859H72.9092V12.7039L79.1172 6.65586H86.3173L79.1172 14.0799L86.9253 23.9999H79.5653L74.7012 17.9199Z" fill="#1A1A1F"/>
</svg>
